<svg width="47" height="35" viewBox="0 0 47 35" fill="none" xmlns="http://www.w3.org/2000/svg">
<g id="Brazil (BR)" clip-path="url(#clip0_131_1116)">
<g id="Group">
<path id="Vector" fill-rule="evenodd" clip-rule="evenodd" d="M0 0H47V35H0V0Z" fill="#229E45"/>
<path id="Vector_2" fill-rule="evenodd" clip-rule="evenodd" d="M23.6029 31.7916L45.7443 17.5218L23.4707 3.20825L1.25586 17.551L23.6029 31.7916Z" fill="#F8E509"/>
<path id="Vector_3" fill-rule="evenodd" clip-rule="evenodd" d="M33.2529 17.5C33.2529 22.626 29.0596 26.7823 23.8823 26.7823C22.0322 26.7794 20.2244 26.2319 18.6876 25.2091C17.1508 24.1863 15.9539 22.734 15.2483 21.0359C14.5426 19.3378 14.3599 17.47 14.7231 15.6688C15.0864 13.8675 15.9793 12.2137 17.2891 10.9163C18.5989 9.61884 20.2666 8.73611 22.0816 8.37968C23.8966 8.02324 25.7772 8.20909 27.4858 8.91375C29.1944 9.6184 30.6542 10.8102 31.6807 12.3385C32.7072 13.8668 33.2543 15.663 33.2529 17.5Z" fill="#2B49A3"/>
<path id="Vector_4" fill-rule="evenodd" clip-rule="evenodd" d="M20.8044 23.0635L20.5106 22.8958L20.2169 23.0416L20.283 22.7135L20.048 22.4656L20.3784 22.4291L20.54 22.1375L20.6795 22.4437L21.0027 22.5021L20.7603 22.7208M27.0759 24.6385L26.7895 24.4708L26.4958 24.6166L26.5545 24.2885L26.3269 24.0479L26.6573 24.0114L26.8116 23.7125L26.9584 24.0187L27.2816 24.0771L27.0319 24.3031M24.3734 22.1156L24.1237 21.9698L23.8667 22.101L23.9255 21.8166L23.7198 21.6052L24.0136 21.576L24.1458 21.3135L24.2633 21.5833L24.5497 21.6343L24.3294 21.8312M30.7184 21.2114L30.4687 21.0656L30.2117 21.1968L30.2705 20.9125L30.0722 20.7083L30.3586 20.6791L30.4908 20.4239L30.6083 20.6864L30.8873 20.7375L30.6744 20.9271M24.2633 19.3229L23.9695 19.1625L23.6758 19.3083L23.7345 18.9729L23.5069 18.7323L23.8373 18.6958L23.9916 18.3968L24.1384 18.7031L24.4616 18.7614L24.2119 18.9948M16.5303 16.4427L16.2366 16.2823L15.9428 16.4281L16.0163 16.0927L15.7739 15.8521L16.1117 15.8156L16.2586 15.5166L16.4055 15.8229L16.7286 15.8812L16.4863 16.1073M17.463 20.2781L17.1692 20.1104L16.8755 20.2562L16.9416 19.9281L16.7066 19.6875L17.037 19.6437L17.1913 19.3521L17.3381 19.6583L17.6613 19.7166L17.4189 19.9427M27.1127 15.0354L26.8483 14.8896L26.5839 15.0208L26.6427 14.7291L26.437 14.5104L26.7308 14.4739L26.8703 14.2114L26.9952 14.4885L27.2889 14.5396L27.0686 14.7364M26.5766 17.5291L26.3783 17.4125L26.1653 17.5146L26.2094 17.2812L26.0478 17.1135L26.2828 17.0843L26.393 16.8802L26.4884 17.0989L26.7088 17.1354L26.5472 17.2958M16.1044 20.9708L15.9061 20.8614L15.7078 20.9562L15.7519 20.7375L15.5977 20.5771L15.818 20.5479L15.9208 20.351L16.0163 20.5552L16.2366 20.5989L16.0677 20.7448M30.7698 21.8604L30.6083 21.7802L30.4467 21.8531L30.4834 21.6854L30.3586 21.5687L30.5348 21.5468L30.623 21.401L30.6964 21.5468L30.88 21.5833L30.7405 21.6927" fill="#FFFFEF"/>
<path id="Vector_5" fill-rule="evenodd" clip-rule="evenodd" d="M16.1044 20.9709L15.9061 20.8615L15.7078 20.9563L15.7519 20.7375L15.5977 20.5771L15.818 20.5479L15.9208 20.3511L16.0163 20.5552L16.2366 20.599L16.0677 20.7448" fill="#FFFFEF"/>
<path id="Vector_6" fill-rule="evenodd" clip-rule="evenodd" d="M16.1044 20.9708L15.9061 20.8614L15.7078 20.9562L15.7519 20.7375L15.5977 20.5771L15.818 20.5479L15.9208 20.351L16.0163 20.5552L16.2366 20.5989L16.0677 20.7448M19.1741 20.9635L18.9831 20.8614L18.7848 20.9562L18.8289 20.7375L18.6747 20.5771L18.895 20.5479L18.9978 20.351L19.0933 20.5552L19.3136 20.5916L19.1447 20.7448M18.7922 21.9843L18.6013 21.875L18.403 21.9771L18.447 21.7583L18.2928 21.5906L18.5131 21.5614L18.6159 21.3646L18.7114 21.5687L18.9317 21.6125L18.7628 21.7583M25.1813 20.1396L24.9903 20.0229L24.7847 20.125L24.8288 19.9062L24.6819 19.7385L24.9022 19.7166L25.005 19.5198L25.0931 19.7239L25.3134 19.7604L25.1519 19.9135M23.3086 20.1323L23.1103 20.0229L22.912 20.125L22.9561 19.9062L22.8092 19.7385L23.0295 19.7166L23.1323 19.5125L23.2205 19.7239L23.4408 19.7604L23.2792 19.9135M18.2267 19.4906L18.1019 19.4177L17.977 19.476L18.0064 19.3375L17.9109 19.2354L18.0505 19.2208L18.1092 19.0968L18.168 19.2281L18.3075 19.25L18.2047 19.3448M30.5275 22.6552L30.3366 22.5458L30.1383 22.6479L30.1823 22.4291L30.0281 22.2614L30.2484 22.2323L30.3513 22.0354L30.4467 22.2396L30.667 22.2833L30.4981 22.4291M28.9706 22.8666L28.8091 22.7646L28.6402 22.8521L28.6769 22.6625L28.552 22.5312L28.7356 22.5093L28.8238 22.3416L28.8972 22.5166L29.0808 22.5458L28.9413 22.6771M29.705 22.8448L29.5581 22.7573L29.4039 22.8302L29.4333 22.6625L29.3158 22.5385L29.4847 22.5166L29.5655 22.3708L29.6389 22.5166L29.8078 22.5531L29.683 22.6698M31.82 21.0073L31.6731 20.9343L31.5263 21.0073L31.563 20.8396L31.4455 20.7156L31.6144 20.6937L31.6878 20.5479L31.7613 20.701L31.9155 20.7302L31.798 20.8468M28.9486 23.8948L28.765 23.7927L28.5667 23.8802L28.6108 23.676L28.4639 23.5302L28.6842 23.5083L28.7797 23.326L28.8678 23.5156L29.0881 23.5521L28.9192 23.6906M28.9633 24.726L28.787 24.6239L28.6108 24.7187L28.6548 24.5146L28.5153 24.3687L28.7136 24.3396L28.8017 24.1573L28.8825 24.3468L29.0808 24.3833L28.9339 24.5291M27.5386 22.8448L27.3991 22.7573L27.2522 22.8302L27.2816 22.6698L27.1714 22.5458L27.333 22.5312L27.4064 22.3854L27.4798 22.5312L27.6414 22.5604L27.5239 22.6771M26.2167 22.8448L26.0698 22.7573L25.923 22.8302L25.9597 22.6698L25.8422 22.5458L26.0111 22.5312L26.0845 22.3854L26.158 22.5312L26.3122 22.5604L26.1947 22.6771M23.9622 20.8833L23.8153 20.8031L23.6684 20.876L23.7052 20.7083L23.5877 20.5916L23.7492 20.5698L23.8227 20.4239L23.8961 20.5698L24.0577 20.6062L23.9402 20.7156M24.2119 24.8718L24.0944 24.8062L23.9622 24.8718L23.9916 24.726L23.8961 24.6239L24.0356 24.6093L24.1017 24.4854L24.1605 24.6166L24.3 24.6385L24.1972 24.7333M20.8044 18.4187L20.5106 18.251L20.2169 18.3968L20.283 18.0687L20.048 17.8281L20.3784 17.7843L20.54 17.4927L20.6795 17.7989L21.0027 17.8573L20.7603 18.0833" fill="#FFFFEF"/>
<path id="Vector_7" fill-rule="evenodd" clip-rule="evenodd" d="M32.636 20.8396C32.8179 20.3709 32.9604 19.888 33.062 19.3959C28.0829 15.0573 22.5384 12.8334 15.5324 13.2927C15.2783 13.7809 15.0694 14.291 14.9082 14.8167C23.2066 14.0292 29.302 17.675 32.636 20.8396Z" fill="white"/>
<path id="Vector_8" d="M30.4035 18.4042L30.5724 18.499C30.5472 18.5485 30.5394 18.605 30.5504 18.6594C30.5676 18.7121 30.6043 18.7564 30.6532 18.7833C30.7046 18.8198 30.756 18.8417 30.8 18.8344C30.8441 18.8344 30.8735 18.8125 30.8955 18.7833C30.9083 18.764 30.9135 18.7406 30.9102 18.7177C30.9042 18.6908 30.8916 18.6657 30.8735 18.6448C30.8588 18.6229 30.8221 18.5719 30.7633 18.5135C30.7029 18.4517 30.6577 18.3768 30.6311 18.2948C30.6128 18.2327 30.6176 18.1662 30.6445 18.1073C30.6715 18.0484 30.7189 18.0011 30.778 17.974C30.8314 17.9518 30.8905 17.9467 30.9469 17.9594C31.016 17.9752 31.081 18.005 31.1379 18.0469C31.2407 18.1198 31.3068 18.1927 31.3288 18.2802C31.3389 18.3211 31.3403 18.3637 31.3327 18.4052C31.3251 18.4467 31.3087 18.4861 31.2847 18.5208L31.1085 18.4115C31.1305 18.3677 31.1379 18.324 31.1232 18.2875C31.1158 18.251 31.0864 18.2146 31.035 18.1854C30.9973 18.1553 30.9512 18.1375 30.9029 18.1344C30.8895 18.1339 30.8764 18.1371 30.8647 18.1435C30.8531 18.1499 30.8434 18.1594 30.8368 18.1708C30.8221 18.1927 30.8221 18.2146 30.8294 18.2437C30.8368 18.2729 30.8735 18.3312 30.9469 18.4042C31.0204 18.4771 31.0644 18.5427 31.0938 18.5865C31.12 18.6342 31.1319 18.6885 31.128 18.7428C31.1241 18.7971 31.1046 18.8491 31.0718 18.8927C31.0374 18.9423 30.9888 18.9804 30.9322 19.0021C30.8772 19.0273 30.8156 19.0349 30.756 19.024C30.6899 19.0094 30.6238 18.9802 30.5504 18.9292C30.4402 18.8563 30.3741 18.776 30.3521 18.6885C30.3281 18.5893 30.3439 18.4848 30.3961 18.3969L30.4035 18.4042ZM29.5516 17.85L29.7352 17.9448C29.7125 17.9952 29.7073 18.0516 29.7205 18.1052C29.7393 18.1553 29.7759 18.1968 29.8233 18.2219C29.8821 18.2583 29.9261 18.2729 29.9702 18.2656C30.0143 18.2656 30.0436 18.2437 30.0657 18.2073C30.0768 18.1899 30.082 18.1695 30.0804 18.149C30.0804 18.1271 30.0657 18.0979 30.0436 18.076C30.006 18.031 29.9668 17.9872 29.9261 17.9448C29.8454 17.8646 29.7939 17.799 29.7793 17.7406C29.7672 17.7031 29.7636 17.6634 29.7687 17.6244C29.7738 17.5853 29.7874 17.5478 29.8086 17.5146C29.8366 17.4696 29.8775 17.434 29.9261 17.4125C29.9766 17.3894 30.0328 17.3818 30.0877 17.3906C30.1556 17.402 30.2205 17.4268 30.2786 17.4635C30.3888 17.5365 30.4549 17.6094 30.4769 17.6896C30.4903 17.7306 30.4946 17.7739 30.4895 17.8167C30.4845 17.8595 30.4701 17.9007 30.4475 17.9375L30.2639 17.8354C30.286 17.7844 30.2933 17.7479 30.2786 17.7115C30.2639 17.675 30.2346 17.6385 30.1832 17.6094C30.1425 17.5804 30.0936 17.5651 30.0436 17.5656C30.0316 17.5664 30.0199 17.5702 30.0097 17.5765C29.9994 17.5829 29.9909 17.5917 29.9849 17.6021C29.9702 17.624 29.9702 17.6458 29.9775 17.675C29.9849 17.7042 30.0289 17.7625 30.1024 17.8354C30.1758 17.9083 30.2272 17.9667 30.2493 18.0104C30.2787 18.0561 30.2943 18.1093 30.2943 18.1635C30.2943 18.2178 30.2787 18.2709 30.2493 18.3167C30.2176 18.3675 30.1717 18.4081 30.1171 18.4333C30.062 18.4585 30.0004 18.4662 29.9408 18.4552C29.8652 18.4425 29.7929 18.4153 29.7278 18.375C29.6329 18.3248 29.5598 18.2418 29.5222 18.1417C29.4938 18.0443 29.5044 17.9398 29.5516 17.85ZM28.5088 17.5729L29.0449 16.6979L29.6911 17.099L29.603 17.2448L29.133 16.9531L29.0155 17.15L29.4561 17.4198L29.3607 17.5656L28.92 17.2958L28.7732 17.5365L29.2652 17.8281L29.1771 17.974L28.5161 17.5729H28.5088ZM26.9886 16.3333L27.0694 16.1875L27.466 16.3844L27.2824 16.749C27.2236 16.7635 27.1502 16.7708 27.0621 16.7635C26.9775 16.7543 26.8953 16.7296 26.8197 16.6906C26.7309 16.6476 26.6549 16.5823 26.5994 16.501C26.5489 16.4256 26.5232 16.3364 26.526 16.2458C26.5297 16.1516 26.5548 16.0593 26.5994 15.976C26.6435 15.8884 26.7092 15.8131 26.7904 15.7573C26.868 15.704 26.9604 15.676 27.0547 15.6771C27.1282 15.6771 27.2016 15.699 27.2897 15.75C27.4072 15.801 27.4807 15.874 27.5174 15.9542C27.5556 16.0338 27.5634 16.1245 27.5394 16.2094L27.3411 16.151C27.3533 16.1022 27.3481 16.0507 27.3264 16.0052C27.3044 15.9615 27.2677 15.9323 27.2089 15.9031C27.1747 15.8837 27.1367 15.8717 27.0975 15.868C27.0582 15.8642 27.0186 15.8687 26.9813 15.8813C26.9079 15.9031 26.8418 15.9687 26.7904 16.0708C26.7389 16.1729 26.7169 16.2677 26.7389 16.3479C26.7491 16.386 26.7675 16.4213 26.7929 16.4516C26.8182 16.4818 26.85 16.5061 26.8858 16.5229C26.9225 16.5448 26.9666 16.5594 27.0107 16.5594C27.0545 16.566 27.099 16.566 27.1429 16.5594L27.2016 16.4427L26.9886 16.3333ZM20.3646 14.7073L20.5114 13.6865L20.8199 13.7375L20.9007 14.4521L21.1871 13.7958L21.4955 13.8396L21.3486 14.8458L21.1504 14.8167L21.2752 14.0219L20.9521 14.7875L20.7538 14.7583L20.673 13.9344L20.5555 14.7365L20.3646 14.7073ZM19.3291 14.5833L19.4246 13.5625L20.181 13.6354L20.1663 13.8104L19.6155 13.7594L19.5935 13.9781L20.1075 14.0292L20.0855 14.2042L19.5714 14.1531L19.5494 14.4302L20.1222 14.4813L20.1075 14.6562L19.3291 14.5833Z" fill="#309E3A"/>
<g id="Group_2">
<path id="Vector_9" d="M15.8992 13.9491C15.8992 13.8397 15.9212 13.7595 15.9506 13.6866C15.9764 13.6347 16.0112 13.5878 16.0534 13.548C16.0911 13.5103 16.1361 13.4805 16.1856 13.4605C16.2591 13.4387 16.3325 13.4241 16.4059 13.4241C16.5601 13.4241 16.6776 13.4824 16.7731 13.5699C16.8186 13.6256 16.8524 13.6898 16.8725 13.7587C16.8927 13.8275 16.8989 13.8997 16.8906 13.9709C16.8906 14.1314 16.8392 14.2626 16.7437 14.3574C16.6947 14.4024 16.6366 14.4367 16.5734 14.4581C16.5101 14.4794 16.4431 14.4874 16.3766 14.4814C16.3109 14.482 16.2458 14.4694 16.1852 14.4444C16.1246 14.4193 16.0698 14.3823 16.0241 14.3355C15.9327 14.2281 15.8878 14.0892 15.8992 13.9491Z" fill="#309E3A"/>
<path id="Vector_10" d="M16.1123 13.949C16.1123 14.0584 16.1343 14.1459 16.1857 14.2115C16.2371 14.2698 16.3032 14.3063 16.3914 14.3063C16.4295 14.309 16.4677 14.3031 16.5033 14.2893C16.5389 14.2754 16.5709 14.2538 16.597 14.2261C16.6484 14.1678 16.6704 14.0803 16.6778 13.9563C16.6778 13.8396 16.6631 13.7521 16.6043 13.6938C16.5804 13.6644 16.5502 13.6407 16.5159 13.6243C16.4816 13.6079 16.4441 13.5993 16.4061 13.599C16.3674 13.5978 16.329 13.605 16.2935 13.6201C16.2579 13.6352 16.2262 13.6579 16.2004 13.6865C16.1417 13.7448 16.1196 13.8323 16.1123 13.949Z" fill="#F7FFFF"/>
</g>
<g id="Group_3">
<path id="Vector_11" d="M17.1113 14.474L17.126 13.4531H17.5666C17.6768 13.4531 17.7502 13.4677 17.8016 13.4896C17.853 13.5042 17.8898 13.5406 17.9191 13.5844C17.9485 13.6281 17.9632 13.6865 17.9632 13.7521C17.9638 13.8222 17.9375 13.89 17.8898 13.9417C17.8355 13.9922 17.7656 14.023 17.6915 14.0292L17.8016 14.1167C17.831 14.1458 17.8677 14.2042 17.9118 14.2844L18.0366 14.4885H17.787L17.6401 14.2552L17.5373 14.1094C17.5195 14.0893 17.4967 14.0742 17.4712 14.0656C17.4378 14.056 17.4032 14.051 17.3684 14.051H17.3243V14.474H17.1113Z" fill="#309E3A"/>
<path id="Vector_12" d="M17.332 13.8907H17.4789C17.5817 13.8907 17.6478 13.8907 17.6698 13.8761C17.6919 13.8761 17.7139 13.8542 17.7286 13.8396C17.7433 13.825 17.7506 13.7886 17.7506 13.7667C17.7506 13.723 17.7433 13.6938 17.7213 13.6792C17.7066 13.6573 17.6772 13.6428 17.6478 13.6355H17.5009L17.332 13.6282V13.8834V13.8907Z" fill="white"/>
</g>
<g id="Group_4">
<path id="Vector_13" d="M18.2858 13.5042L18.6677 13.526C18.7484 13.526 18.8145 13.5333 18.8586 13.5479C18.9158 13.5685 18.9664 13.6037 19.0055 13.65C19.0478 13.701 19.0779 13.7608 19.0936 13.825C19.1156 13.8906 19.123 13.9708 19.1156 14.0656C19.1156 14.14 19.1032 14.2139 19.0789 14.2844C19.0495 14.3573 19.0055 14.4156 18.9541 14.4594C18.9113 14.4944 18.8611 14.5193 18.8072 14.5323C18.7631 14.5469 18.697 14.5469 18.6236 14.5469L18.2344 14.525L18.2858 13.5042Z" fill="#309E3A"/>
<path id="Vector_14" d="M18.484 13.6865L18.4473 14.3646H18.7263C18.763 14.3646 18.7924 14.3501 18.8145 14.3282C18.8365 14.3063 18.8585 14.2771 18.8732 14.2334C18.8879 14.1896 18.9026 14.124 18.9026 14.0438L18.8952 13.8615C18.8847 13.8231 18.8645 13.7879 18.8365 13.7594C18.8121 13.7351 18.7817 13.7175 18.7484 13.7084C18.6928 13.6961 18.6363 13.6888 18.5795 13.6865H18.484Z" fill="white"/>
</g>
<g id="Group_5">
<path id="Vector_15" d="M23.3242 15.3271L23.5666 14.3354L23.8897 14.4084L24.1247 14.4813C24.1761 14.5104 24.2202 14.5542 24.2422 14.6198C24.2716 14.6782 24.2716 14.7438 24.2569 14.824C24.2422 14.8823 24.2202 14.9334 24.1834 14.9698C24.1565 15.0018 24.1228 15.0276 24.0847 15.0452C24.0467 15.0629 24.0051 15.072 23.9631 15.0719C23.9117 15.0719 23.8383 15.0573 23.7428 15.0354L23.618 14.999L23.5298 15.3782L23.3242 15.3271Z" fill="#309E3A"/>
<path id="Vector_16" d="M23.7209 14.5542L23.6621 14.8313L23.7723 14.8604C23.8457 14.875 23.9045 14.8896 23.9338 14.8823C23.9624 14.8784 23.989 14.8658 24.0101 14.8462C24.0311 14.8266 24.0455 14.801 24.0513 14.7729C24.0513 14.7365 24.0513 14.7073 24.0366 14.6782C24.0205 14.6485 23.9946 14.6253 23.9632 14.6125L23.8237 14.5761L23.7282 14.5542H23.7209Z" fill="white"/>
</g>
<g id="Group_6">
<path id="Vector_17" d="M24.2783 15.6114L24.6235 14.6489L25.0274 14.7948C25.1375 14.8312 25.2036 14.8677 25.2477 14.8968C25.2844 14.9333 25.3138 14.9698 25.3211 15.0281C25.3285 15.0864 25.3358 15.1375 25.3211 15.1958C25.2918 15.2687 25.2477 15.3198 25.1889 15.3562C25.1302 15.3854 25.0568 15.3927 24.9686 15.3781C24.998 15.4146 25.0274 15.451 25.0421 15.4948L25.1008 15.6916L25.1449 15.9177L24.9172 15.8375L24.8438 15.575C24.8304 15.5156 24.8133 15.4571 24.7924 15.4C24.7826 15.3773 24.7675 15.3573 24.7483 15.3416C24.7336 15.3198 24.7043 15.3052 24.6529 15.2906L24.6161 15.276L24.4693 15.6843L24.2783 15.6114Z" fill="#309E3A"/>
<path id="Vector_18" d="M24.6753 15.1229L24.8148 15.174C24.9103 15.2104 24.9691 15.225 24.9984 15.225C25.0205 15.225 25.0425 15.225 25.0645 15.2032C25.0866 15.1886 25.1012 15.1667 25.1086 15.1375C25.1233 15.1084 25.1233 15.0792 25.1086 15.05C25.0977 15.0218 25.0768 14.9984 25.0498 14.9844L24.903 14.9334L24.7561 14.8823L24.668 15.1229H24.6753Z" fill="white"/>
</g>
<g id="Group_7">
<path id="Vector_19" d="M25.4832 15.5749C25.5085 15.4895 25.551 15.4101 25.6081 15.3416C25.6452 15.2976 25.69 15.2605 25.7403 15.2322C25.7858 15.2067 25.8355 15.1894 25.8872 15.1812C25.9606 15.1812 26.034 15.1812 26.1148 15.2103C26.1805 15.2264 26.2419 15.2562 26.2951 15.2977C26.3482 15.3392 26.3919 15.3914 26.4232 15.4509C26.482 15.5676 26.482 15.7062 26.4379 15.8666C26.4016 16.0044 26.3118 16.1223 26.1882 16.1947C26.0781 16.2603 25.9459 16.2676 25.8064 16.2239C25.7409 16.2073 25.6797 16.1774 25.6265 16.1359C25.5734 16.0945 25.5296 16.0425 25.4979 15.9832C25.4685 15.9195 25.4521 15.8506 25.4496 15.7805C25.447 15.7104 25.4585 15.6406 25.4832 15.5749Z" fill="#309E3A"/>
<path id="Vector_20" d="M25.6889 15.6333C25.6595 15.7427 25.6522 15.8375 25.6889 15.9104C25.7256 15.9833 25.7771 16.0271 25.8578 16.0563C25.9313 16.0781 26.0047 16.0708 26.0781 16.0271C26.1516 15.9906 26.1956 15.9104 26.2324 15.7938C26.2691 15.6844 26.2691 15.5969 26.2324 15.524C26.2179 15.4894 26.1959 15.4584 26.168 15.4332C26.14 15.408 26.1069 15.3892 26.0708 15.3781C26.0347 15.3658 25.9963 15.3613 25.9582 15.3651C25.9202 15.3688 25.8834 15.3808 25.8505 15.4C25.777 15.4438 25.7256 15.5167 25.6889 15.6333Z" fill="white"/>
</g>
<g id="Group_8">
<path id="Vector_21" d="M27.4873 16.9969L27.9573 16.0928L28.3465 16.2896C28.4199 16.3246 28.4869 16.3714 28.5448 16.4282C28.5815 16.4646 28.6036 16.5084 28.6036 16.5667C28.6036 16.6251 28.6036 16.6761 28.5742 16.7271C28.5459 16.7927 28.4933 16.8449 28.4273 16.873C28.3539 16.8876 28.2804 16.8876 28.1996 16.8584C28.229 16.9021 28.2437 16.9459 28.2584 16.9824C28.2731 17.0261 28.2804 17.0917 28.2878 17.1865L28.3025 17.4199L28.0821 17.3105L28.0528 17.0407C28.0493 16.9795 28.0419 16.9186 28.0307 16.8584C28.0257 16.8311 28.013 16.8058 27.994 16.7855L27.9059 16.7344L27.8692 16.7126L27.6709 17.0917L27.4873 16.9969Z" fill="#309E3A"/>
<path id="Vector_22" d="M27.9424 16.5668L28.0819 16.6397C28.17 16.6835 28.2288 16.7127 28.2508 16.7127C28.2729 16.7127 28.3022 16.7127 28.3243 16.6981C28.3463 16.6908 28.361 16.6689 28.3757 16.6397C28.3904 16.6106 28.3977 16.5814 28.3904 16.5522C28.3813 16.5232 28.3633 16.4977 28.3389 16.4793C28.296 16.4531 28.2519 16.4288 28.2068 16.4064L28.0599 16.3335L27.9424 16.5668Z" fill="white"/>
</g>
<g id="Group_9">
<path id="Vector_23" d="M31.2917 18.8637C31.3392 18.7887 31.4017 18.7242 31.4753 18.6741C31.5247 18.6427 31.5794 18.6204 31.6368 18.6084C31.6901 18.5976 31.7451 18.5976 31.7984 18.6084C31.8718 18.623 31.9379 18.6522 32.004 18.6959C32.0612 18.7313 32.1103 18.7781 32.1482 18.8333C32.1861 18.8886 32.2121 18.951 32.2243 19.0168C32.2464 19.1407 32.2096 19.2793 32.1215 19.4178C32.0478 19.5383 31.929 19.6249 31.791 19.6584C31.7253 19.6725 31.6573 19.6727 31.5915 19.6589C31.5257 19.645 31.4635 19.6176 31.4092 19.5782C31.352 19.5429 31.3029 19.4961 31.265 19.4409C31.227 19.3856 31.2011 19.3231 31.1889 19.2574C31.1668 19.1262 31.2035 18.9949 31.2917 18.8637Z" fill="#309E3A"/>
<path id="Vector_24" d="M31.4757 18.9803C31.4023 19.0751 31.3802 19.1626 31.3949 19.2428C31.4003 19.2798 31.4136 19.3151 31.4339 19.3466C31.4541 19.378 31.4809 19.4048 31.5124 19.4251C31.5859 19.4762 31.6593 19.4907 31.7327 19.4689C31.8062 19.447 31.8796 19.396 31.9457 19.2939C32.0118 19.1918 32.0412 19.1043 32.0265 19.0314C32.0191 18.9585 31.9751 18.8928 31.909 18.8418C31.8429 18.7907 31.7621 18.7835 31.6887 18.8053C31.6152 18.8199 31.5418 18.8782 31.4684 18.9803H31.4757Z" fill="white"/>
</g>
<path id="Vector_25" d="M22.1631 14.9114L22.332 14.1968L22.8607 14.3207L22.8387 14.4374L22.4495 14.3499L22.4128 14.5103L22.7726 14.5905L22.7432 14.7145L22.3834 14.627L22.3393 14.8239L22.7432 14.9187L22.7139 15.0353L22.1631 14.9114Z" fill="#309E3A"/>
</g>
</g>
<defs>
<clipPath id="clip0_131_1116">
<rect width="47" height="35" fill="white"/>
</clipPath>
</defs>
</svg>
