<?xml version="1.0" standalone="no"?>
<!DOCTYPE svg PUBLIC "-//W3C//DTD SVG 20010904//EN"
 "http://www.w3.org/TR/2001/REC-SVG-20010904/DTD/svg10.dtd">
<svg version="1.0" xmlns="http://www.w3.org/2000/svg"
 width="1024.000000pt" height="1024.000000pt" viewBox="0 0 1024.000000 1024.000000"
 preserveAspectRatio="xMidYMid meet">

<g transform="translate(0.000000,1024.000000) scale(0.100000,-0.100000)"
fill="#000000" stroke="none">
<path d="M0 5120 l0 -5120 5120 0 5120 0 0 5120 0 5120 -5120 0 -5120 0 0
-5120z m5337 3740 c5 -18 14 -20 92 -20 47 0 92 -4 100 -9 9 -6 14 -30 15 -70
1 -47 4 -58 12 -46 10 13 14 12 34 -5 19 -16 72 -40 129 -56 11 -3 11 -7 1
-19 -18 -22 -88 -18 -139 8 -35 17 -45 28 -47 50 -2 16 -9 36 -16 45 -12 15
-11 16 5 3 14 -11 17 -11 17 2 0 21 -32 46 -37 30 -3 -7 -11 -13 -18 -13 -7 0
-15 6 -18 13 -3 9 -7 9 -20 -2 -10 -7 -17 -19 -17 -25 0 -6 5 -4 11 4 9 12 10
10 6 -8 -4 -18 -2 -22 9 -18 9 3 12 1 9 -4 -3 -6 -12 -10 -18 -10 -7 0 -13
-11 -13 -24 -1 -17 2 -23 12 -19 8 3 14 0 14 -5 0 -10 -44 -7 -62 4 -10 6 0
-41 13 -67 5 -9 37 -29 73 -44 l64 -27 1 -329 1 -329 -32 -1 c-18 -1 -194 -2
-390 -3 l-357 -1 -3 286 c-2 157 -1 311 0 342 l4 56 49 17 c27 10 57 27 67 37
21 24 23 104 3 116 -8 5 -10 14 -6 21 6 9 4 11 -5 5 -10 -6 -12 -3 -8 13 6 20
2 22 -31 22 -36 0 -39 -2 -50 -41 -17 -55 -80 -116 -137 -131 l-44 -12 0 -578
c0 -418 3 -578 11 -578 8 0 8 -4 1 -13 -7 -9 -11 -228 -12 -692 0 -710 1 -694
-42 -695 -17 0 -18 69 -18 1305 l0 1304 43 11 c72 20 127 58 148 103 10 23 19
50 19 60 0 15 12 17 105 17 98 0 105 1 105 20 0 19 7 20 181 20 172 0 181 -1
186 -20z m-1127 -123 c0 -7 -53 -47 -118 -89 -174 -114 -228 -130 -439 -129
l-143 1 0 -572 0 -572 -22 22 -23 23 -3 557 c-1 306 0 567 3 580 5 22 8 22
163 22 220 0 291 20 429 121 56 41 75 49 110 49 28 0 43 -4 43 -13z m2081 -37
c126 -101 197 -120 446 -120 177 0 183 -1 183 -20 0 -32 -39 -40 -204 -40
-218 0 -330 32 -460 130 -28 21 -63 43 -78 49 l-28 11 0 -140 c0 -113 -3 -140
-14 -140 -7 0 -16 10 -20 23 -8 29 -8 261 0 281 5 12 20 16 59 16 49 0 59 -4
116 -50z m-677 -1278 c-1 -609 -3 -1115 -5 -1124 -1 -10 -6 -18 -11 -18 -9 0
-10 2162 -1 2218 3 17 8 32 12 32 3 0 5 -498 5 -1108z m1205 471 c-1 -513 -3
-583 -20 -583 -10 0 -13 1083 -2 1093 3 4 10 7 14 7 5 0 8 -233 8 -517z
m-2617 475 c-10 -10 -77 -14 -255 -15 l-242 -2 0 -247 c0 -170 -3 -248 -11
-251 -10 -3 -24 261 -24 459 l0 68 272 0 c218 0 270 -3 260 -12z m2518 -2 c-6
-11 -101 -15 -366 -16 l-202 0 -4 -69 c-3 -56 -9 -75 -32 -106 -27 -35 -86
-70 -108 -63 -5 2 7 15 28 28 56 37 74 74 77 164 l2 76 305 -2 c177 -2 303 -7
300 -12z m-3341 -216 c-2 -61 -6 -79 -16 -76 -8 4 -13 -3 -13 -17 -1 -21 -1
-22 -15 -3 -10 14 -15 45 -15 98 l0 78 31 0 30 0 -2 -80z m3696 -2 c-1 -73
-15 -115 -36 -103 -4 3 -12 -3 -18 -12 -8 -13 -10 9 -11 83 0 55 3 104 7 108
4 4 19 6 33 4 24 -3 25 -5 25 -80z m-463 -83 c-5 -146 -12 -130 -11 26 1 74 4
121 8 104 4 -16 5 -75 3 -130z m-2772 26 c0 -69 -4 -122 -10 -126 -6 -4 -10
26 -10 82 -1 48 -3 105 -6 126 -5 29 -2 37 10 37 14 0 16 -17 16 -119z m3680
-86 c-7 -8 -18 -15 -24 -15 -6 0 -2 7 8 15 25 19 32 19 16 0z m-1971 -697 c1
-515 -2 -613 -20 -602 -5 3 -7 8 -5 12 2 4 -20 5 -50 4 -30 -2 -60 1 -67 7
-10 8 -14 2 -15 -27 -4 -57 -12 -51 -13 9 0 32 -3 47 -7 36 -4 -10 -6 -36 -4
-58 4 -35 6 -39 26 -33 11 4 24 12 28 18 5 8 8 7 8 -2 0 -7 4 -11 9 -8 5 4 11
2 13 -4 1 -5 23 -11 48 -13 l45 -3 2 -201 2 -202 -32 -6 c-18 -4 -68 -15 -112
-25 -44 -10 -91 -20 -105 -22 l-25 -3 -3 168 -2 167 -99 0 -98 0 -7 -31 c-3
-17 -6 -103 -6 -190 0 -141 -2 -158 -17 -163 -23 -7 -254 -56 -265 -56 -4 0
-8 394 -8 875 l0 875 389 0 389 0 1 -522z m-1311 507 c-8 -9 -100 -13 -326
-14 l-214 -1 7 -200 c5 -176 4 -200 -10 -200 -13 0 -15 28 -15 210 l0 210 282
0 c155 0 279 -2 276 -5z m2472 -5 c18 -12 -503 -12 -540 0 -14 4 97 8 250 9
162 0 281 -3 290 -9z m-4330 -171 c0 -12 -7 -19 -20 -19 -22 0 -29 35 -7 43
18 6 27 -2 27 -24z m5670 6 c0 -18 -5 -25 -20 -25 -25 0 -27 37 -2 43 9 3 18
5 20 6 1 0 2 -10 2 -24z m-3953 -67 c-3 -8 -6 -5 -6 6 -1 11 2 17 5 13 3 -3 4
-12 1 -19z m2370 0 c-3 -8 -6 -5 -6 6 -1 11 2 17 5 13 3 -3 4 -12 1 -19z
m-3484 -47 c21 -61 60 -95 135 -118 31 -9 59 -19 62 -21 8 -6 -25 -22 -47 -22
-15 0 -23 -6 -23 -16 0 -13 -3 -14 -14 -5 -12 10 -15 6 -21 -18 -3 -16 -2 -39
4 -49 8 -15 7 -23 -4 -32 -8 -7 -13 -16 -10 -20 3 -4 -2 -10 -10 -14 -8 -3
-15 -12 -15 -20 0 -21 74 -83 109 -91 37 -8 34 19 32 -310 0 -126 -1 -335 -1
-462 l-1 -233 -55 0 c-34 0 -53 4 -49 10 3 6 -1 10 -9 10 -15 0 -21 -12 -17
-33 1 -5 -3 -6 -8 -2 -6 3 -7 13 -4 21 5 13 -1 14 -33 8 -22 -3 -41 -6 -44 -6
-3 0 -23 0 -45 1 -35 2 -37 3 -17 11 31 13 28 30 -5 29 l-28 -1 25 -8 c24 -8
23 -8 -8 -9 -19 -1 -31 -5 -27 -11 6 -9 -53 -3 -65 7 -8 7 -12 133 -6 186 7
53 8 54 39 53 l32 -1 3 -97 3 -98 28 0 29 0 1 135 2 135 -100 0 -99 0 -1 -147
c-1 -80 -3 -148 -5 -150 -2 -3 -35 5 -73 16 -37 11 -100 30 -140 41 l-71 20
-7 93 c-3 50 -5 247 -3 436 l3 343 52 20 c29 10 64 33 78 50 26 31 26 31 6 49
-22 20 -36 25 -26 9 3 -5 -3 -10 -15 -10 -18 0 -19 3 -9 23 7 12 17 25 23 29
7 5 3 8 -8 8 -16 0 -17 3 -8 12 15 15 15 28 1 28 -5 0 -8 -4 -4 -9 3 -6 -4 -9
-15 -8 -14 1 -19 6 -15 17 4 9 3 11 -3 5 -5 -5 -15 -27 -22 -48 -19 -60 -54
-94 -118 -113 -31 -10 -61 -18 -66 -18 -9 -1 -16 -365 -16 -744 0 -103 0 -103
-22 -96 -13 4 -26 12 -30 18 -9 13 -11 790 -2 833 6 28 10 31 57 37 89 10 138
63 145 155 l4 60 50 12 c66 15 133 78 143 132 l7 37 177 0 176 0 18 -49z
m3404 27 c-3 -8 -6 -5 -6 6 -1 11 2 17 5 13 3 -3 4 -12 1 -19z m1403 -18 c17
-62 56 -99 132 -124 46 -16 64 -26 59 -35 -4 -7 -15 -9 -26 -5 -11 5 -16 3
-12 -2 9 -16 -8 -35 -26 -28 -9 3 -15 9 -12 13 2 4 -1 8 -8 8 -7 0 -13 -8 -13
-18 0 -10 3 -16 6 -14 3 2 12 -6 19 -17 11 -18 11 -20 -3 -15 -18 7 -20 -1 -7
-22 5 -8 14 -10 22 -6 8 4 4 -2 -8 -14 -12 -12 -20 -28 -17 -36 4 -9 0 -15
-10 -15 -21 0 -20 -16 4 -50 13 -18 43 -37 81 -52 l61 -23 -6 -50 c-3 -27 -6
-81 -6 -119 0 -68 0 -68 -25 -62 -31 8 -33 -1 -2 -14 16 -7 10 -8 -24 -4 -26
3 -49 2 -53 -4 -3 -5 6 -8 22 -6 18 2 14 -1 -13 -10 -24 -8 -41 -9 -44 -3 -2
5 -7 3 -12 -4 -6 -10 -9 -11 -9 -1 0 14 -36 17 -44 3 -4 -5 4 -7 16 -5 14 3 9
-2 -12 -12 -23 -10 -47 -14 -72 -10 -21 4 -38 2 -38 -3 0 -9 -100 -5 -132 5
-10 3 -15 12 -12 22 2 9 -2 4 -10 -13 -11 -23 -11 -33 -3 -44 10 -12 9 -12 -9
-3 -12 6 -25 8 -29 4 -5 -4 -5 1 -2 11 5 12 3 17 -5 15 -6 -2 -12 -12 -14 -22
-5 -35 -13 -44 -43 -48 -21 -3 -31 0 -31 8 0 16 -28 44 -43 44 -7 0 -6 -4 3
-10 8 -5 12 -12 8 -15 -3 -3 -13 1 -22 10 -14 15 -16 15 -16 1 0 -12 -10 -16
-36 -16 -29 0 -34 3 -30 18 3 9 1 24 -4 32 -6 10 -8 1 -5 -29 2 -24 1 -41 -2
-38 -9 10 -33 -20 -33 -42 0 -12 -4 -21 -10 -21 -6 0 -11 60 -12 158 -1 86 -2
186 -2 221 l-1 63 42 17 c56 22 94 52 96 76 1 11 -2 20 -8 20 -18 1 -35 16
-30 26 4 5 0 9 -7 9 -9 0 -9 3 2 10 15 9 13 11 -12 14 -7 0 -14 10 -15 21 -3
19 -3 19 5 1 5 -11 11 -15 14 -10 4 5 0 18 -8 28 -11 16 -14 17 -19 4 -3 -8
-7 -26 -8 -39 -2 -13 -11 -39 -21 -57 -13 -25 -23 -33 -37 -29 -10 3 -21 1
-24 -4 -3 -4 -32 -16 -64 -25 l-59 -16 -2 -192 c-1 -105 -3 -204 -5 -221 -2
-16 -3 -51 -4 -77 -1 -36 -5 -48 -16 -48 -11 0 -15 11 -16 38 0 20 -2 127 -5
237 -2 110 -1 222 4 250 l7 50 49 7 c88 12 135 64 143 156 l6 60 45 13 c63 17
116 68 132 124 l13 45 183 0 183 0 11 -40z m-3880 -181 l175 -3 -190 -6 -190
-5 -3 -82 c-4 -116 -22 -105 -22 12 l0 96 28 -5 c15 -2 106 -6 202 -7z m2377
-5 c-3 -3 -12 -4 -19 -1 -8 3 -5 6 6 6 11 1 17 -2 13 -5z m40 0 c-3 -3 -12 -4
-19 -1 -8 3 -5 6 6 6 11 1 17 -2 13 -5z m-3232 -43 c3 -5 1 -12 -5 -16 -5 -3
-10 1 -10 9 0 18 6 21 15 7z m274 -147 c6 -6 -50 -5 -76 2 -13 4 -21 10 -18
14 5 7 84 -6 94 -16z m4809 16 c37 0 25 -17 -15 -22 -40 -5 -83 8 -83 25 0 6
16 7 38 3 20 -3 47 -6 60 -6z m-79 -97 c0 -10 -4 -27 -9 -38 -6 -15 -7 -11 -7
18 1 20 5 37 9 37 4 0 8 -8 7 -17z m-4854 -486 c1 -260 -2 -488 -6 -507 -4
-19 -7 196 -8 479 0 283 2 511 6 507 4 -4 8 -220 8 -479z m4842 290 c-2 -23
-3 -1 -3 48 0 50 1 68 3 42 2 -26 2 -67 0 -90z m287 -11 c-3 -7 -18 -19 -35
-27 l-30 -14 0 -1393 c-1 -765 -3 -1392 -4 -1392 -2 0 -10 3 -19 6 -15 6 -16
139 -16 1404 l0 1398 48 19 c49 21 64 21 56 -1z m-784 -112 c0 -2 -7 -4 -15
-4 -8 0 -15 4 -15 10 0 5 7 7 15 4 8 -4 15 -8 15 -10z m45 -3 c18 -7 17 -8 -6
-13 -17 -3 -26 0 -26 9 0 15 3 15 32 4z m-270 -50 c-3 -6 -11 -8 -17 -5 -6 4
-5 9 3 15 16 10 23 4 14 -10z m-55 -11 c0 -5 -4 -10 -10 -10 -5 0 -10 5 -10
10 0 6 5 10 10 10 6 0 10 -4 10 -10z m-1836 -26 c3 -8 2 -12 -4 -9 -6 3 -10
10 -10 16 0 14 7 11 14 -7z m46 -14 c0 -5 -7 -7 -15 -4 -8 4 -15 8 -15 10 0 2
7 4 15 4 8 0 15 -4 15 -10z m1915 -225 l25 -24 0 -701 c0 -385 1 -700 3 -700
2 0 93 -18 203 -40 218 -44 279 -62 289 -88 10 -27 6 -395 -5 -406 -6 -6 -36
-4 -82 8 -179 44 -394 89 -551 116 -184 32 -200 39 -217 99 -16 57 -13 1649 3
1681 23 46 118 76 250 79 49 1 62 -3 82 -24z m-2223 -100 c3 -177 5 -169 -54
-179 l-38 -7 0 148 0 148 45 0 45 0 2 -110z m-3115 -19 c274 -152 751 -282
1273 -346 161 -20 129 -26 -50 -9 -494 45 -899 143 -1193 290 l-97 49 0 -552
c2 -2039 2 -2056 -20 -2068 -20 -11 -20 -8 -20 1340 0 742 2 1350 5 1350 3 0
49 -24 102 -54z m4791 11 l22 -20 0 -798 c0 -711 -2 -799 -16 -813 -23 -24
-54 -28 -153 -25 -83 4 -93 6 -118 32 l-28 27 -2 758 c-2 589 0 762 10 781 18
37 69 62 155 75 85 14 97 12 130 -17z m-5063 -83 c0 -10 -8 -20 -17 -22 -18
-3 -26 27 -11 42 12 11 28 0 28 -20z m4650 1 c23 -22 25 -32 25 -118 0 -52 -3
-115 -6 -140 l-6 -45 -172 -32 c-94 -18 -209 -40 -256 -49 l-85 -17 -3 -364
c-2 -201 0 -389 3 -417 l6 -53 62 0 c34 0 145 7 246 17 227 20 211 31 211
-148 0 -139 -7 -170 -43 -193 -28 -19 -531 -63 -590 -52 -79 15 -122 77 -154
226 -16 76 -18 140 -18 611 l0 525 28 42 c39 60 96 97 186 121 108 29 480 109
514 110 17 1 37 -8 52 -24z m2105 0 c0 -20 -5 -25 -25 -25 -18 0 -25 5 -25 18
0 10 3 22 7 25 3 4 15 7 25 7 13 0 18 -7 18 -25z m-6864 -225 c68 -33 124 -64
124 -69 0 -5 -6 -14 -14 -20 -11 -9 -33 -2 -102 32 -49 25 -99 47 -111 51 -29
9 -45 30 -37 50 3 9 8 16 11 16 2 0 60 -27 129 -60z m7094 31 c0 -13 -28 -31
-114 -70 -118 -53 -146 -60 -146 -37 0 21 17 32 131 81 117 50 129 53 129 26z
m-3335 -53 c24 -22 27 -38 65 -308 91 -646 141 -1035 136 -1055 -7 -27 -62
-45 -162 -52 -70 -6 -74 -5 -84 18 -6 13 -19 95 -28 181 -10 87 -20 159 -23
162 -5 5 -281 -43 -288 -50 -3 -3 -10 -86 -16 -185 -9 -154 -13 -183 -28 -194
-13 -10 -170 -45 -200 -45 -19 0 -37 37 -37 74 0 48 71 617 130 1051 42 299
50 328 95 345 25 9 365 77 397 79 9 1 28 -9 43 -21z m-2770 -97 c72 -17 218
-46 325 -66 107 -19 211 -40 230 -45 64 -18 113 -54 145 -104 l30 -49 0 -306
0 -306 -26 -50 c-19 -37 -40 -58 -80 -82 -29 -18 -63 -33 -76 -33 -28 0 -29
-13 -3 -50 33 -46 74 -134 155 -335 116 -284 117 -287 108 -296 -4 -4 -59 -18
-121 -30 -84 -18 -117 -21 -130 -13 -19 12 -57 83 -103 194 -100 243 -178 387
-241 447 -26 25 -45 33 -90 38 l-58 7 0 -399 c0 -386 -1 -401 -20 -418 -21
-19 -206 -75 -248 -75 -14 0 -34 7 -44 17 -17 15 -18 59 -18 995 l0 979 31 13
c22 9 43 11 68 5 20 -5 95 -22 166 -38z m-1031 -27 c9 -23 -5 -44 -29 -44 -27
0 -36 17 -24 47 9 24 43 22 53 -3z m3107 -15 c18 -18 20 -31 18 -122 -2 -135
-7 -165 -31 -178 -10 -6 -137 -27 -281 -48 l-262 -37 -7 -55 c-7 -51 -2 -179
8 -188 6 -7 184 15 371 45 132 22 166 24 178 14 21 -18 22 -222 0 -243 -20
-20 -75 -32 -328 -71 -120 -19 -222 -37 -225 -41 -6 -6 -11 -188 -12 -493 0
-132 10 -121 -140 -145 l-93 -15 -24 24 -23 23 0 710 0 710 25 19 c14 11 47
23 73 26 26 3 147 17 269 31 122 15 257 32 300 39 119 21 160 19 184 -5z
m-981 -99 c20 -20 20 -33 20 -760 0 -721 0 -740 -19 -750 -11 -5 -63 -17 -116
-26 l-96 -16 -25 23 c-13 12 -28 39 -34 58 -14 52 -13 1388 1 1430 17 47 50
60 157 61 79 0 95 -3 112 -20z m-2112 -242 c102 -22 122 -32 122 -54 0 -19
-19 -18 -147 12 -95 22 -113 29 -113 45 0 25 18 24 138 -3z m7132 2 c0 -21
-13 -26 -158 -56 -63 -13 -85 -15 -94 -6 -19 19 2 31 103 56 122 31 149 32
149 6z m-7270 -308 c0 -9 44 -7 119 3 42 6 60 -2 61 -27 0 -5 -49 -8 -110 -8
-103 0 -110 1 -110 20 0 13 7 20 20 20 11 0 20 -4 20 -8z m7315 -21 c-6 -6
-50 -10 -100 -11 -124 -2 -125 -2 -125 13 0 10 25 12 110 10 86 -2 109 0 104
10 -5 9 -4 9 7 0 8 -8 9 -16 4 -22z m-7059 -242 c12 -20 -15 -32 -123 -55 -94
-20 -110 -21 -122 -9 -8 8 -12 18 -8 21 6 7 197 51 229 53 9 0 20 -4 24 -10z
m6879 -8 c121 -23 135 -29 128 -47 -6 -17 -28 -18 -107 -3 -121 23 -136 29
-136 49 0 24 -7 24 115 1z m-6868 -387 c8 -21 -6 -29 -136 -81 -92 -36 -108
-40 -121 -27 -21 20 -7 30 103 68 53 19 104 39 114 45 25 14 33 14 40 -5z
m6878 -32 c82 -32 121 -53 123 -65 2 -11 -3 -17 -13 -17 -17 0 -193 63 -227
81 -18 9 -26 49 -10 49 4 0 61 -21 127 -48z m-6857 -293 c3 -16 -5 -21 -141
-96 -72 -39 -103 -51 -111 -43 -18 18 5 42 75 79 166 88 171 90 177 60z m6845
-44 c77 -40 117 -66 117 -76 0 -9 -6 -19 -12 -22 -14 -5 -208 99 -235 125 -14
15 -10 43 6 36 3 -2 59 -30 124 -63z m-3070 -1025 c1 -509 1 -978 -1 -1043
l-3 -117 -52 -27 c-29 -15 -54 -27 -57 -28 -13 -1 -60 -44 -60 -54 0 -6 -5
-11 -10 -11 -6 0 -10 -7 -8 -16 3 -18 3 -18 -102 -28 -30 -3 -72 -9 -93 -15
-20 -5 -39 -6 -42 -1 -5 9 -97 6 -113 -4 -7 -4 -12 -2 -12 4 0 7 -16 10 -45 7
-25 -2 -45 0 -45 5 0 4 -5 8 -11 8 -5 0 -7 -6 -3 -12 6 -9 3 -9 -9 0 -9 8 -22
10 -28 6 -8 -4 -9 -3 -5 4 4 7 1 12 -7 12 -19 0 -27 43 -11 58 33 30 -34 126
-97 139 l-29 6 0 396 c0 295 3 400 12 409 9 9 9 12 0 12 -9 0 -12 147 -12 631
0 547 2 630 14 620 12 -10 19 -8 37 10 20 20 22 20 15 3 -27 -67 -15 -114 28
-114 46 0 63 57 25 83 -11 9 -16 18 -11 21 16 10 54 -46 49 -71 -2 -12 0 -20
4 -17 5 3 9 -2 9 -10 0 -9 -16 -20 -40 -27 -37 -11 -43 -10 -70 10 -34 25 -40
15 -10 -17 11 -12 20 -25 20 -31 0 -5 6 -12 13 -14 7 -3 5 -6 -5 -6 -22 -1
-24 -31 -3 -31 8 0 15 4 15 9 0 6 9 9 19 8 11 0 17 -5 15 -9 -3 -5 -10 -6 -15
-3 -5 4 -9 1 -9 -4 0 -16 31 -13 51 5 17 15 18 -6 19 -437 1 -424 4 -488 27
-465 4 4 8 98 9 209 3 716 5 880 10 875 4 -5 8 -25 13 -74 1 -15 51 -25 51
-10 0 7 4 6 9 -2 10 -16 105 -27 164 -18 46 7 66 29 68 79 1 17 2 18 6 5 2
-10 8 -18 12 -18 5 0 8 8 8 18 0 32 3 42 13 42 5 0 7 -7 4 -15 -4 -8 -2 -15 4
-15 5 0 15 7 22 15 7 8 18 15 24 15 6 0 0 -9 -13 -19 -16 -12 -20 -20 -12 -25
6 -4 9 -11 6 -16 -3 -5 4 -11 15 -15 11 -3 25 -15 30 -26 15 -27 66 -26 73 2
8 30 -2 48 -29 55 -14 4 -24 13 -23 23 0 10 2 11 6 4 2 -7 11 -13 19 -13 8 0
27 -11 42 -25 15 -14 21 -25 14 -25 -6 0 -12 -4 -12 -10 0 -5 8 -7 18 -3 9 3
14 3 10 -2 -4 -4 -3 -15 4 -22 9 -11 9 -16 -2 -23 -11 -7 -11 -11 -1 -23 8
-10 9 -17 1 -22 -5 -3 -10 -1 -10 4 0 6 -5 11 -11 11 -8 0 -7 -5 1 -15 7 -9
19 -14 25 -11 10 3 13 -112 14 -525 2 -502 1 -529 -16 -530 -16 -1 -16 -2 -1
-6 15 -4 17 -36 18 -382 0 -208 -2 -386 -6 -395 -3 -9 -13 -16 -21 -16 -8 0
-12 -4 -9 -8 3 -4 -15 -19 -39 -32 -26 -14 -49 -37 -59 -57 -29 -62 -14 -106
20 -55 24 36 40 49 102 78 30 15 52 32 53 42 1 9 1 505 1 1102 0 706 3 1061 9
1015 5 -38 11 -486 12 -995z m-1033 1011 c12 -24 13 -34 1 -27 -5 4 -4 -5 2
-19 7 -14 18 -23 25 -20 8 3 10 0 6 -7 -4 -6 -6 -496 -5 -1089 l2 -1078 -30
-16 -31 -16 0 1130 c0 894 3 1130 13 1134 9 4 8 8 -3 16 -10 7 -11 11 -3 11 7
0 17 -9 23 -19z m2459 -38 c1 -27 5 -73 7 -103 3 -30 8 -198 11 -372 5 -312 5
-318 -15 -318 -27 0 -32 42 -27 210 3 74 5 246 5 383 0 136 4 247 8 247 5 0
10 -21 11 -47z m231 0 c14 -1 40 -5 58 -8 22 -4 32 -2 32 6 0 7 3 10 6 6 3 -3
3 -11 -1 -18 -4 -6 -8 -37 -7 -68 l0 -57 -35 -2 c-40 -3 -63 12 -63 40 0 17 3
18 15 8 23 -19 64 -4 71 26 13 52 -52 61 -87 13 -20 -29 -21 -35 -9 -68 7 -20
14 -45 15 -56 1 -13 10 -21 25 -23 18 -3 20 -6 9 -13 -11 -7 -11 -9 3 -9 9 0
22 8 27 18 6 9 11 11 11 5 0 -7 8 -13 18 -13 17 0 19 -14 21 -207 1 -114 5
-211 7 -215 19 -30 24 36 26 310 0 169 4 280 8 247 7 -67 17 -95 32 -95 6 0 4
7 -3 17 -12 14 -12 16 1 11 10 -3 16 -22 19 -59 2 -41 5 -49 12 -34 6 13 8 -9
7 -65 0 -47 0 -140 1 -207 l1 -123 189 0 c187 0 189 0 195 23 12 46 10 47 -83
47 -72 0 -90 3 -95 16 -8 20 -8 63 0 104 l7 32 83 -4 c81 -3 84 -2 84 19 0 12
3 29 6 37 6 15 -7 16 -117 14 l-124 -3 -3 -108 -3 -108 -37 3 -37 3 -3 188
c-2 189 4 234 33 223 8 -3 15 -1 17 4 2 5 9 6 15 2 12 -7 19 -40 22 -99 1 -19
7 -23 31 -23 29 0 30 1 31 53 1 28 1 55 0 60 0 4 12 7 28 7 16 0 32 6 35 13 3
6 4 1 1 -13 -3 -14 -2 -19 1 -12 6 13 34 17 34 4 0 -4 9 -13 21 -20 19 -12 20
-11 15 10 -3 13 -3 17 0 11 3 -7 10 -13 15 -13 10 0 8 28 -4 48 -5 6 -4 12 2
12 5 0 13 -5 16 -10 3 -6 18 -8 31 -6 21 4 23 2 14 -9 -6 -8 -18 -11 -26 -8
-21 8 -17 -10 6 -25 11 -7 20 -18 20 -25 -1 -7 -6 -5 -14 6 -12 16 -14 16 -20
2 -3 -9 -11 -13 -17 -9 -8 5 -9 3 -5 -5 5 -7 14 -10 22 -7 7 3 16 1 19 -3 3
-5 15 -7 27 -3 14 3 19 2 14 -6 -11 -19 5 -14 20 6 12 15 13 14 9 -13 -2 -16
-2 -24 1 -17 3 6 12 12 19 12 7 0 16 -6 19 -12 3 -7 3 3 0 22 -4 28 -3 32 7
23 9 -9 14 -81 17 -252 l5 -239 -56 -27 c-50 -23 -97 -65 -97 -84 0 -4 6 -16
14 -26 12 -17 15 -17 52 13 21 17 60 41 87 52 l47 21 0 171 c0 94 2 169 5 166
11 -11 6 -346 -5 -364 -7 -11 -29 -27 -50 -37 -21 -10 -59 -34 -84 -53 -25
-19 -51 -32 -57 -28 -9 5 -10 -8 -5 -47 7 -54 7 -55 -38 -101 -24 -25 -47 -60
-51 -76 -7 -32 -25 -45 -50 -36 -8 4 -15 2 -15 -2 0 -5 -36 -8 -80 -7 -55 1
-80 -3 -80 -10 0 -9 -2 -9 -8 -1 -11 17 -52 24 -45 8 3 -8 0 -14 -6 -14 -6 0
-11 5 -11 11 0 6 -14 9 -35 6 -32 -4 -36 -2 -41 22 -3 14 -10 35 -16 46 -7 11
-17 30 -24 43 -6 13 -15 23 -20 22 -14 -1 -16 62 -2 72 9 7 7 8 -8 5 -15 -3
-20 1 -19 14 1 10 4 21 7 25 9 8 -1 35 -21 57 -8 10 -11 18 -6 17 47 -10 46
28 -2 70 -20 18 -49 37 -65 42 -34 12 -33 -20 -29 498 1 195 4 242 14 230 7
-9 23 -16 37 -17z m-1865 7 c3 -5 1 -10 -4 -10 -6 0 -11 5 -11 10 0 6 2 10 4
10 3 0 8 -4 11 -10z m-265 -41 c0 -28 -15 -23 -16 6 -1 14 2 22 7 19 5 -3 9
-14 9 -25z m30 -9 c0 -5 -5 -10 -11 -10 -5 0 -7 5 -4 10 3 6 8 10 11 10 2 0 4
-4 4 -10z m240 -25 c-7 -8 -17 -15 -23 -15 -6 0 -7 3 -4 7 4 3 2 12 -5 20 -8
11 -7 12 6 7 10 -4 16 -1 16 7 0 10 3 10 12 1 8 -8 8 -15 -2 -27z m-536 9 c9
-22 8 -24 -9 -24 -8 0 -15 9 -15 20 0 24 15 27 24 4z m2444 -7 c2 -10 -3 -17
-12 -17 -10 0 -16 9 -16 21 0 24 23 21 28 -4z m553 -20 c-10 -9 -11 -8 -5 6 3
10 9 15 12 12 3 -3 0 -11 -7 -18z m-2417 -3 c4 -9 4 -19 2 -21 -8 -8 -26 8
-26 23 0 19 16 18 24 -2z m2266 -34 c0 -5 -2 -10 -4 -10 -3 0 -8 5 -11 10 -3
6 -1 10 4 10 6 0 11 -4 11 -10z m234 -55 c-4 -8 -14 -15 -23 -15 -14 1 -13 3
3 15 25 19 27 19 20 0z m30 -1 c3 -8 2 -12 -4 -9 -6 3 -10 10 -10 16 0 14 7
11 14 -7z m-3054 -4 c0 -5 -2 -10 -4 -10 -3 0 -8 5 -11 10 -3 6 -1 10 4 10 6
0 11 -4 11 -10z m-1787 -275 c-3 -9 -8 -14 -10 -11 -3 3 -2 9 2 15 9 16 15 13
8 -4z m29 -13 c-7 -2 -12 -10 -12 -18 0 -9 5 -12 10 -9 6 4 10 -30 10 -94 l0
-101 -37 -19 c-41 -21 -93 -66 -93 -81 0 -17 12 -40 22 -40 6 0 26 14 45 30
19 17 52 38 74 46 l39 16 0 116 c0 63 2 113 5 111 8 -9 8 -212 0 -242 -4 -15
-10 -26 -12 -23 -3 3 -14 -4 -26 -15 -11 -10 -27 -19 -34 -19 -7 0 -13 -4 -13
-10 0 -5 -5 -10 -11 -10 -6 0 -17 -7 -25 -15 -11 -10 -21 -12 -32 -6 -10 6
-23 6 -34 0 -22 -12 -24 -41 -3 -33 21 8 19 -24 -2 -49 -10 -11 -13 -17 -6
-14 17 10 27 -11 13 -28 -6 -8 -8 -20 -4 -26 4 -8 3 -9 -4 -5 -7 4 -12 1 -12
-9 0 -12 -5 -15 -16 -11 -11 4 -15 2 -11 -8 3 -8 2 -16 -3 -18 -4 -2 -10 -12
-12 -23 -3 -19 -31 -54 -45 -56 -5 -1 -18 -5 -30 -10 -14 -5 -23 -5 -23 1 0 5
-10 7 -22 5 -20 -4 -37 -5 -108 -5 -14 0 -49 1 -78 1 -38 0 -54 -4 -58 -15
-12 -30 -24 -16 -24 27 0 24 -4 47 -10 53 -6 6 -5 19 4 36 11 21 12 26 1 22
-8 -4 -16 6 -20 26 -4 17 -9 29 -13 26 -3 -3 -11 -1 -17 4 -13 11 -8 57 7 66
5 3 4 12 -3 20 -6 8 -8 14 -3 15 5 0 -9 9 -31 20 -22 10 -31 18 -20 17 27 -3
45 9 45 32 0 22 -61 77 -95 86 -23 6 -25 11 -25 58 0 28 4 46 8 39 4 -7 23
-14 43 -16 19 -2 40 -7 47 -11 16 -10 45 1 38 13 -3 5 5 8 18 7 13 0 24 -5 23
-11 -1 -5 8 -11 21 -13 19 -3 22 1 22 33 0 30 2 34 14 23 8 -7 12 -16 9 -20
-2 -5 1 -8 6 -8 6 0 12 10 12 23 1 16 2 18 6 5 2 -10 9 -18 14 -18 5 0 9 -7 9
-15 0 -13 24 -15 160 -15 l160 0 0 34 c0 19 3 43 6 53 4 14 4 15 -4 4 -6 -9
-19 -11 -36 -7 -14 3 -26 3 -26 -2 0 -4 -16 -8 -35 -8 -19 0 -35 4 -35 8 0 4
7 8 15 8 8 0 14 3 13 8 -2 4 2 7 7 7 6 0 9 -3 8 -7 -2 -5 1 -8 6 -8 5 0 11 5
13 11 3 9 10 9 26 0 20 -11 22 -9 22 14 0 25 10 30 55 25 16 -2 17 0 6 14 -11
14 -11 16 3 16 9 0 16 -4 16 -10 0 -5 9 -10 20 -10 12 0 20 -7 20 -17 0 -11 7
-5 16 14 9 19 21 30 27 26 8 -5 7 -8 -1 -11z m-182 -32 c0 -5 -4 -10 -10 -10
-5 0 -10 5 -10 10 0 6 5 10 10 10 6 0 10 -4 10 -10z m-768 -79 c1 -17 5 -28
11 -24 18 11 27 -22 27 -103 0 -79 -1 -82 -25 -86 -20 -4 -25 0 -31 24 -6 31
5 233 13 225 2 -3 5 -19 5 -36z m210 -343 c-16 -6 -15 -7 1 -7 19 -1 22 -14 7
-42 -19 -34 -40 -23 -40 21 0 22 5 40 10 40 6 0 10 8 10 17 0 15 2 14 14 -3
13 -17 13 -20 -2 -26z m4821 -4 c6 -35 -2 -64 -19 -64 -9 0 -14 11 -14 29 0
58 23 83 33 35z m-3553 -125 c4 -75 2 -99 -7 -99 -10 0 -13 28 -13 107 0 58 3
103 8 99 4 -4 9 -52 12 -107z m-191 -656 c1 -491 1 -503 -19 -513 -16 -9 -20
-7 -25 13 -4 13 -5 265 -3 559 3 457 5 538 18 553 14 17 16 13 21 -46 4 -35 7
-290 8 -566z m3309 -34 c0 -202 -4 -372 -9 -380 -6 -11 -70 -13 -333 -13
l-326 1 0 -119 c0 -114 -10 -165 -31 -153 -10 7 -12 142 -3 231 l6 59 334 -3
334 -4 0 114 c0 62 0 233 0 380 0 147 3 323 7 390 l8 123 7 -130 c4 -71 7
-295 6 -496z m-3105 554 c-16 -6 -18 -189 -3 -198 6 -4 7 -12 3 -18 -4 -7 -7
-147 -5 -313 2 -165 0 -308 -4 -317 -14 -39 -29 -16 -29 46 1 34 2 230 3 435
l2 372 23 -1 c12 0 16 -3 10 -6z m2624 0 c-20 -2 -52 -2 -70 0 -17 2 0 4 38 4
39 0 53 -2 32 -4z m171 0 c-15 -2 -42 -2 -60 0 -18 2 -6 4 27 4 33 0 48 -2 33
-4z m120 0 c-16 -2 -40 -2 -55 0 -16 2 -3 4 27 4 30 0 43 -2 28 -4z m-305
-470 c-13 -2 -35 -2 -50 0 -16 2 -5 4 22 4 28 0 40 -2 28 -4z m142 -23 c4 -6
-29 -9 -92 -8 -86 1 -91 2 -43 8 88 11 128 11 135 0z m-52 -137 c-7 -2 -19 -2
-25 0 -7 3 -2 5 12 5 14 0 19 -2 13 -5z m634 -25 c-3 -8 -6 -5 -6 6 -1 11 2
17 5 13 3 -3 4 -12 1 -19z m-899 -116 c3 -91 0 -110 -12 -115 -14 -6 -16 9
-16 112 0 110 5 144 20 122 3 -6 7 -59 8 -119z m896 63 c-4 -9 0 -15 10 -15
10 0 16 -8 15 -22 -1 -17 -2 -19 -6 -5 -2 9 -9 17 -14 17 -6 0 -7 -5 -3 -12 4
-7 3 -8 -4 -4 -7 4 -12 1 -13 -6 0 -8 -2 -9 -5 -2 -5 12 12 64 20 64 3 0 3 -7
0 -15z m-3021 -12 c-35 -2 -91 -2 -125 0 -35 2 -7 3 62 3 69 0 97 -1 63 -3z
m2440 0 c-35 -2 -91 -2 -125 0 -35 2 -7 3 62 3 69 0 97 -1 63 -3z m-2314 -218
c-7 -6 -540 -7 -547 -1 -3 3 120 6 273 6 153 0 276 -2 274 -5z m647 -225 c0
-11 -5 -20 -10 -19 -5 0 -13 -5 -17 -13 -12 -19 -11 4 1 37 11 29 28 26 26 -5z
m759 -132 c4 -4 5 -22 1 -40 l-6 -33 -385 0 c-212 0 -385 -3 -385 -6 0 -3 -7
-6 -15 -6 -11 0 -15 12 -15 42 0 23 3 45 7 49 9 9 789 3 798 -6z"/>
<path d="M4833 8433 c-10 -4 -13 -50 -13 -184 0 -164 1 -179 18 -179 16 0 17
15 17 180 -1 98 -3 181 -5 183 -3 2 -11 2 -17 0z"/>
<path d="M4963 8428 c-4 -7 -10 -91 -11 -185 -4 -170 -4 -173 17 -173 21 0 21
4 21 175 0 96 0 178 1 182 1 14 -19 14 -28 1z"/>
<path d="M5067 8433 c-11 -11 -8 -363 3 -363 6 0 10 68 10 185 0 102 -1 185
-3 185 -2 0 -7 -3 -10 -7z"/>
<path d="M5178 8433 c-8 -17 4 -363 13 -363 12 0 12 357 0 365 -5 3 -11 2 -13
-2z"/>
<path d="M4880 8250 c0 -106 4 -180 9 -180 6 0 12 19 14 43 l4 42 1 -42 c1
-31 6 -43 17 -43 13 0 15 24 15 158 0 86 3 167 6 180 6 20 3 22 -30 22 l-36 0
0 -180z m37 58 c-2 -18 -4 -6 -4 27 0 33 2 48 4 33 2 -15 2 -42 0 -60z"/>
<path d="M5090 8251 c0 -170 1 -179 20 -184 19 -5 20 0 20 179 0 177 -1 184
-20 184 -19 0 -20 -7 -20 -179z"/>
<path d="M5220 8252 c0 -98 3 -181 6 -185 3 -3 12 -3 20 0 11 4 14 40 14 184
0 172 -1 179 -20 179 -19 0 -20 -7 -20 -178z"/>
<path d="M5298 8419 c-9 -22 3 -349 13 -349 5 0 9 42 8 93 -2 133 -13 275 -21
256z"/>
<path d="M5349 8393 c-5 -308 -4 -323 14 -323 15 0 17 15 17 172 0 94 2 169 4
167 2 -2 6 -78 10 -168 3 -90 8 -166 11 -169 3 -3 5 76 5 176 l0 182 -30 0
c-28 0 -30 -3 -31 -37z"/>
<path d="M5443 8254 c5 -161 9 -195 21 -183 5 5 8 148 7 282 -1 65 -4 77 -18
77 -14 0 -15 -17 -10 -176z"/>
<path d="M4836 7721 c-12 -18 14 -60 37 -61 4 0 12 12 18 27 7 20 6 28 -3 35
-17 10 -45 10 -52 -1z"/>
<path d="M4946 7635 c-3 -9 -6 -306 -6 -660 0 -620 2 -676 28 -650 13 12 8
1318 -4 1322 -6 2 -14 -3 -18 -12z"/>
<path d="M5159 7643 l-87 -4 -6 -34 c-4 -18 -6 -90 -5 -159 l1 -126 29 0 29 0
0 125 0 125 34 0 c67 0 66 4 66 -166 l0 -154 -74 0 -75 0 -6 -52 c-3 -29 -5
-84 -3 -123 3 -68 4 -70 31 -73 l27 -3 0 85 0 86 48 0 47 0 1 -63 c3 -100 2
-97 29 -97 19 0 25 5 25 23 0 12 3 156 7 320 6 288 6 297 -13 295 -10 -1 -58
-4 -105 -5z"/>
<path d="M5360 7330 c0 -278 2 -320 15 -320 13 0 15 42 15 320 0 278 -2 320
-15 320 -13 0 -15 -42 -15 -320z"/>
<path d="M5433 7553 c-7 -2 -13 -18 -13 -34 0 -29 7 -33 45 -29 31 3 40 17 27
45 -11 24 -31 30 -59 18z m37 -39 c0 -8 -4 -12 -10 -9 -5 3 -10 10 -10 16 0 5
5 9 10 9 6 0 10 -7 10 -16z"/>
<path d="M5422 7393 c4 -35 45 -45 65 -17 23 32 16 44 -28 44 -38 0 -40 -1
-37 -27z"/>
<path d="M5068 6914 c-5 -4 -8 -61 -8 -126 l0 -118 30 0 30 0 0 85 0 85 45 0
45 0 1 -60 c1 -33 3 -64 4 -70 1 -5 3 -17 4 -25 1 -9 11 -15 26 -15 25 0 25 1
26 93 2 112 0 129 -12 142 -12 12 -181 20 -191 9z"/>
<path d="M5428 6833 c-12 -3 -18 -14 -18 -33 0 -35 25 -51 58 -39 24 9 30 47
10 67 -12 12 -20 13 -50 5z m23 -50 c-9 -16 -10 -14 -11 12 0 21 3 26 11 18 8
-8 8 -16 0 -30z"/>
<path d="M2508 7323 c7 -3 16 -2 19 1 4 3 -2 6 -13 5 -11 0 -14 -3 -6 -6z"/>
<path d="M3055 7260 c3 -5 8 -10 11 -10 2 0 4 5 4 10 0 6 -5 10 -11 10 -5 0
-7 -4 -4 -10z"/>
<path d="M2633 7032 c-9 -5 -13 -52 -15 -152 l-3 -145 -29 0 -29 0 1 143 c0
134 -1 142 -19 142 -18 0 -19 -12 -19 -364 0 -305 2 -365 14 -369 19 -7 29
111 24 281 l-3 122 32 0 33 0 2 -222 c2 -164 6 -222 15 -225 10 -4 13 73 15
339 3 380 0 462 -19 450z"/>
<path d="M2731 6810 l-2 -230 36 0 35 0 0 230 c0 195 -2 230 -15 230 -11 0
-15 -18 -18 -77 l-3 -78 -2 78 c-2 58 -5 77 -16 77 -11 0 -14 -41 -15 -230z
m36 -147 c-2 -38 -3 -7 -3 67 0 74 1 105 3 68 2 -38 2 -98 0 -135z"/>
<path d="M2860 7028 c-3 -84 2 -453 5 -457 12 -11 14 15 18 169 5 180 -1 300
-14 300 -5 0 -9 -6 -9 -12z"/>
<path d="M2898 6923 c-1 -65 -3 -149 -3 -188 -2 -105 5 -155 21 -155 12 0 14
40 14 230 0 198 -2 230 -15 230 -12 0 -15 -21 -17 -117z"/>
<path d="M2990 6810 c0 -223 1 -230 20 -230 19 0 20 7 20 230 0 223 -1 230
-20 230 -19 0 -20 -7 -20 -230z"/>
<path d="M3045 6815 c1 -158 5 -229 13 -237 9 -9 12 43 12 225 0 191 -3 237
-13 237 -11 0 -13 -43 -12 -225z"/>
<path d="M3100 6810 c0 -198 2 -230 15 -230 13 0 15 32 15 230 0 198 -2 230
-15 230 -13 0 -15 -32 -15 -230z"/>
<path d="M7412 7063 l-33 -4 3 -82 c3 -74 5 -82 23 -82 15 0 19 6 17 23 -2 12
2 22 7 22 6 0 11 -11 11 -25 0 -14 5 -25 10 -25 6 0 10 37 10 90 0 50 -3 89
-7 88 -5 0 -23 -3 -41 -5z"/>
<path d="M7624 7057 c-10 -27 1 -160 14 -165 9 -3 12 18 12 82 0 78 -12 118
-26 83z"/>
<path d="M7660 6985 c0 -74 2 -85 18 -85 14 0 17 9 16 53 -3 112 -4 117 -19
117 -12 0 -15 -16 -15 -85z"/>
<path d="M7722 6983 c2 -52 7 -88 14 -90 11 -4 11 13 5 165 -1 6 -6 12 -11 12
-7 0 -10 -32 -8 -87z"/>
<path d="M7778 7062 c-2 -4 -2 -44 0 -89 3 -64 7 -83 18 -83 8 0 14 8 14 17 0
15 2 14 14 -3 22 -29 29 -12 33 76 4 77 4 80 -17 80 -20 0 -22 -4 -18 -60 1
-33 0 -60 -4 -60 -5 0 -8 27 -8 59 0 43 -4 60 -15 64 -8 4 -16 3 -17 -1z"/>
<path d="M7330 6972 c0 -74 3 -90 13 -81 8 8 11 35 9 83 -5 108 -22 106 -22
-2z"/>
<path d="M7498 6978 c1 -45 4 -84 6 -86 15 -14 26 18 26 73 0 70 -6 95 -24 95
-8 0 -10 -25 -8 -82z"/>
<path d="M7534 7044 c3 -9 6 -47 6 -85 0 -39 4 -69 10 -69 6 0 10 35 10 85 0
71 -3 85 -16 85 -11 0 -14 -5 -10 -16z"/>
<path d="M7582 6978 c2 -49 7 -82 13 -80 6 1 9 15 9 30 -1 15 -2 51 -3 80 0
28 -6 52 -11 52 -7 0 -10 -30 -8 -82z"/>
<path d="M7259 7023 c-6 -78 -4 -105 7 -114 15 -12 21 8 26 84 3 39 0 47 -14
47 -10 0 -19 -8 -19 -17z"/>
<path d="M7875 7031 c-4 -7 -3 -40 1 -74 l8 -62 8 59 c8 58 -1 101 -17 77z"/>
<path d="M7930 6971 c0 -53 3 -71 13 -71 19 0 18 131 0 137 -10 4 -13 -14 -13
-66z"/>
<path d="M7871 6844 c0 -11 3 -14 6 -6 3 7 2 16 -1 19 -3 4 -6 -2 -5 -13z"/>
<path d="M7600 6836 c0 -10 4 -15 9 -11 5 3 12 -3 14 -12 4 -15 5 -15 6 -2 0
9 -6 22 -14 29 -12 10 -15 9 -15 -4z"/>
<path d="M7310 6820 c0 -5 5 -10 11 -10 5 0 7 5 4 10 -3 6 -8 10 -11 10 -2 0
-4 -4 -4 -10z"/>
<path d="M7341 6814 c0 -11 3 -14 6 -6 3 7 2 16 -1 19 -3 4 -6 -2 -5 -13z"/>
<path d="M7431 6802 c-7 -14 -6 -19 4 -19 8 0 12 4 9 8 -2 4 4 12 13 18 17 10
17 10 1 11 -10 0 -22 -8 -27 -18z"/>
<path d="M7510 6800 c0 -5 5 -10 11 -10 5 0 7 5 4 10 -3 6 -8 10 -11 10 -2 0
-4 -4 -4 -10z"/>
<path d="M7386 6785 c4 -8 10 -15 15 -15 4 0 6 7 3 15 -4 8 -10 15 -15 15 -4
0 -6 -7 -3 -15z"/>
<path d="M7668 6793 c7 -3 16 -2 19 1 4 3 -2 6 -13 5 -11 0 -14 -3 -6 -6z"/>
<path d="M7307 6779 c6 -6 9 -19 5 -28 -5 -14 -3 -14 11 -3 14 12 14 16 2 28
-7 8 -17 14 -21 14 -5 0 -3 -5 3 -11z"/>
<path d="M7350 6780 c0 -6 7 -10 15 -10 8 0 15 2 15 4 0 2 -7 6 -15 10 -8 3
-15 1 -15 -4z"/>
<path d="M7446 6753 c-20 -3 -25 -7 -17 -13 16 -9 51 -1 51 11 0 5 -1 8 -2 8
-2 -1 -16 -4 -32 -6z"/>
<path d="M7215 4709 c-4 -6 -5 -12 -2 -15 2 -3 7 2 10 11 7 17 1 20 -8 4z"/>
<path d="M7254 4700 c0 -13 4 -16 10 -10 7 7 7 13 0 20 -6 6 -10 3 -10 -10z"/>
<path d="M7360 4700 c-12 -7 -10 -9 7 -7 12 0 19 5 17 9 -6 10 -6 10 -24 -2z"/>
<path d="M6748 4763 c7 -3 16 -2 19 1 4 3 -2 6 -13 5 -11 0 -14 -3 -6 -6z"/>
<path d="M5221 5649 c-24 -5 -46 -11 -50 -14 -3 -3 -15 -103 -26 -221 -20
-210 -20 -214 -1 -214 10 0 59 5 107 12 l89 12 0 40 c0 23 -9 120 -20 216 -11
96 -20 176 -20 177 0 5 -33 1 -79 -8z"/>
<path d="M5515 4690 c-3 -5 -1 -10 4 -10 6 0 11 5 11 10 0 6 -2 10 -4 10 -3 0
-8 -4 -11 -10z"/>
<path d="M5516 4655 c-11 -8 -15 -15 -9 -15 6 0 16 7 23 15 16 19 11 19 -14 0z"/>
<path d="M4990 4578 c0 -4 7 -8 15 -8 8 0 15 4 15 8 0 5 -7 9 -15 9 -8 0 -15
-4 -15 -9z"/>
<path d="M4926 4563 c-6 -14 -5 -15 5 -6 7 7 10 15 7 18 -3 3 -9 -2 -12 -12z"/>
<path d="M4960 4565 c0 -8 -5 -15 -12 -15 -6 0 -9 -2 -6 -5 3 -3 14 -2 25 2
18 7 19 10 7 21 -12 11 -14 10 -14 -3z"/>
<path d="M2774 5517 c-2 -7 -3 -102 -2 -212 l3 -200 65 -3 c64 -3 264 13 308
24 22 6 22 7 20 172 l-3 166 -40 8 c-378 67 -344 62 -351 45z"/>
<path d="M3400 4240 c0 -5 5 -10 11 -10 5 0 7 5 4 10 -3 6 -8 10 -11 10 -2 0
-4 -4 -4 -10z"/>
<path d="M3370 4210 c-9 -6 -10 -10 -3 -10 6 0 15 5 18 10 8 12 4 12 -15 0z"/>
<path d="M2557 4029 c7 -7 15 -10 18 -7 3 3 -2 9 -12 12 -14 6 -15 5 -6 -5z"/>
<path d="M4103 4378 c-13 -6 -23 -15 -23 -21 0 -5 5 -5 13 1 7 6 24 16 38 21
13 5 17 10 9 10 -8 0 -25 -5 -37 -11z"/>
<path d="M5377 4018 c5 -7 9 -30 8 -51 -1 -22 2 -33 6 -25 11 18 22 3 22 -30
0 -20 6 -28 18 -29 10 -1 21 2 24 8 4 5 15 9 26 9 32 0 19 34 -14 38 -15 2
-27 7 -27 11 0 12 22 28 45 34 11 2 -1 5 -27 6 -36 1 -51 6 -60 21 -7 11 -17
20 -22 20 -4 0 -4 -6 1 -12z m61 -44 c1 -1 -1 -11 -6 -23 -7 -21 -9 -20 -25
13 l-17 36 23 -13 c12 -6 23 -12 25 -13z"/>
<path d="M5510 3994 c0 -8 5 -12 10 -9 6 4 8 11 5 16 -9 14 -15 11 -15 -7z"/>
<path d="M5012 3980 c0 -14 2 -19 5 -12 2 6 2 18 0 25 -3 6 -5 1 -5 -13z"/>
<path d="M5218 3973 c-10 -2 -18 -8 -18 -13 0 -4 9 -6 20 -3 11 3 20 9 20 14
0 5 -1 8 -2 8 -2 -1 -11 -3 -20 -6z"/>
<path d="M5066 3871 c-2 -3 -3 -35 -2 -71 l1 -65 74 0 74 0 1 -165 1 -165 28
-3 27 -3 0 204 c0 232 6 217 -85 217 -47 0 -53 2 -59 24 -5 22 -51 43 -60 27z"/>
<path d="M5067 3633 c-4 -3 -7 -143 -7 -310 l0 -303 170 0 170 0 0 35 0 35
-75 0 -76 0 3 73 3 72 73 3 72 3 0 37 0 37 -92 -5 c-51 -3 -99 -9 -105 -13 -9
-6 -13 -39 -13 -108 l0 -99 -35 0 -35 0 0 275 0 275 -23 0 c-13 0 -27 -3 -30
-7z"/>
<path d="M4930 2605 l0 -25 220 0 220 0 0 25 0 25 -220 0 -220 0 0 -25z"/>
<path d="M4963 2543 c-18 -2 -33 -8 -33 -14 0 -12 437 -12 444 0 3 5 -1 12
-10 15 -17 6 -348 5 -401 -1z"/>
<path d="M5123 2483 l-193 -3 0 -30 0 -29 143 0 c78 -1 177 2 220 5 77 7 77 7
77 35 0 25 -3 29 -27 27 -16 -2 -115 -4 -220 -5z"/>
<path d="M5028 2393 c-64 -3 -98 -8 -98 -15 0 -14 429 -3 444 12 10 10 -105
11 -346 3z"/>
<path d="M5148 2352 c-211 -2 -218 -3 -218 -22 0 -20 6 -20 138 -20 205 1 312
10 312 26 0 7 -3 14 -7 16 -5 2 -106 2 -225 0z"/>
<path d="M4939 2269 c-1 -2 -3 -21 -4 -41 l-4 -38 225 0 c192 0 224 2 224 15
0 13 -31 15 -215 15 -137 0 -215 4 -215 10 0 6 76 10 209 10 129 0 212 4 216
10 4 7 -65 10 -199 10 -112 0 -211 3 -220 6 -9 3 -16 5 -17 3z"/>
<path d="M4930 2110 l0 -31 168 3 c256 3 272 5 272 33 l0 24 -220 1 -220 0 0
-30z"/>
<path d="M7360 3163 c0 -15 19 -37 26 -31 3 4 -1 14 -10 23 -9 9 -16 13 -16 8z"/>
<path d="M3037 3626 c-4 -11 -1 -13 10 -9 12 5 14 3 8 -7 -5 -9 -4 -11 4 -6 9
6 9 11 0 22 -14 17 -16 17 -22 0z"/>
<path d="M3138 3583 c7 -3 16 -2 19 1 4 3 -2 6 -13 5 -11 0 -14 -3 -6 -6z"/>
<path d="M2551 3190 c-9 -5 -4 -7 13 -7 29 0 32 2 13 10 -8 3 -20 2 -26 -3z"/>
</g>
</svg>
